<mxfile>
    <diagram id="fbnDdFZGd-gpGPzS-n4a" name="Page-1">
        <mxGraphModel dx="1784" dy="426" grid="1" gridSize="10" guides="1" tooltips="1" connect="1" arrows="1" fold="1" page="1" pageScale="1" pageWidth="850" pageHeight="1100" math="0" shadow="0">
            <root>
                <mxCell id="0"/>
                <mxCell id="1" parent="0"/>
                <mxCell id="2" value="Author" style="shape=ext;double=1;whiteSpace=wrap;html=1;aspect=fixed;fillColor=#60a917;strokeColor=#2D7600;fontColor=#ffffff;" vertex="1" parent="1">
                    <mxGeometry x="90" y="120" width="80" height="80" as="geometry"/>
                </mxCell>
                <mxCell id="3" value="Post" style="shape=ext;double=1;whiteSpace=wrap;html=1;aspect=fixed;fillColor=#d80073;strokeColor=#A50040;fontColor=#ffffff;" vertex="1" parent="1">
                    <mxGeometry x="470" y="130" width="80" height="80" as="geometry"/>
                </mxCell>
                <mxCell id="5" value="Im a post I belong to an authoer&lt;br&gt;I hole information about my author with an authoer object&lt;br&gt;" style="text;html=1;align=center;verticalAlign=middle;resizable=0;points=[];autosize=1;fillColor=#f5f5f5;strokeColor=#666666;fontColor=#333333;strokeWidth=4;" vertex="1" parent="1">
                    <mxGeometry x="350" y="80" width="320" height="30" as="geometry"/>
                </mxCell>
                <mxCell id="6" value="I am an author who has many posts&lt;br&gt;I retrieve information about songs from the song class" style="text;html=1;align=center;verticalAlign=middle;resizable=0;points=[];autosize=1;fillColor=#f5f5f5;strokeColor=#666666;fontColor=#333333;" vertex="1" parent="1">
                    <mxGeometry x="-30" y="70" width="300" height="30" as="geometry"/>
                </mxCell>
            </root>
        </mxGraphModel>
    </diagram>
</mxfile>